<?xml version="1.0" encoding="UTF-8"?>
<svg id="Layer_1" data-name="Layer 1" xmlns="http://www.w3.org/2000/svg" xmlns:xlink="http://www.w3.org/1999/xlink" viewBox="0 0 746.32 150">
  <defs>
    <style>
      .cls-1 {
        fill-rule: evenodd;
      }

      .cls-1, .cls-2 {
        fill: currentColor;
      }

      .cls-2 {
        stroke: currentColor;
        stroke-miterlimit: 10;
        stroke-width: 3px;
      }

      .cls-3 {
        filter: url(#outer-glow-3);
      }
    </style>
    <filter id="outer-glow-3" filterUnits="userSpaceOnUse">
      <feOffset dx="0" dy="0"/>
      <feGaussianBlur result="blur" stdDeviation="15"/>
      <feFlood flood-color="currentColor" flood-opacity=".56"/>
      <feComposite in2="blur" operator="in"/>
      <feComposite in="SourceGraphic"/>
    </filter>
  </defs>
  <path class="cls-1" d="m117.34,34.81H31.34c-4.24.09-2.92-6-3.1-8.58,0-4.1,3.32-7.42,7.42-7.42h91.47c9,3.51-2.64,17.38-9.79,16Z"/>
  <g class="cls-3">
    <path class="cls-2" d="m255.57,46.93c0,2.26-.41,4.47-1.22,6.64-.82,2.17-2.02,4.22-3.62,6.15-1.6,1.93-3.61,3.7-6.02,5.3-2.42,1.61-5.19,2.99-8.32,4.17,3.52.61,6.41,1.53,8.66,2.77,2.25,1.24,4.01,2.67,5.29,4.3s2.15,3.4,2.64,5.3.73,3.86.73,5.86v13.73c0,1.95.41,3.85,1.22,5.7.82,1.84,1.84,3.53,3.08,5.04h-15.76c-.65-.69-1.16-1.49-1.52-2.38-.36-.89-.64-1.81-.83-2.77-.2-.95-.33-1.88-.39-2.77-.07-.89-.1-1.66-.1-2.31v-14.45c0-1.74-.44-3.46-1.32-5.17-.88-1.71-2.32-3.24-4.31-4.59-1.99-1.34-4.58-2.43-7.78-3.25-3.2-.82-7.08-1.24-11.65-1.24h-41.31v38.92h-14.49V21.1h55.8c6.66,0,12.54.77,17.67,2.31,5.12,1.54,9.43,3.54,12.92,5.99,3.49,2.45,6.13,5.22,7.93,8.3,1.79,3.08,2.69,6.16,2.69,9.24Zm-82.52,17.51h41.31c3.59,0,6.98-.46,10.18-1.37,3.2-.91,6.02-2.17,8.47-3.78,2.45-1.6,4.39-3.47,5.83-5.6,1.43-2.13,2.15-4.43,2.15-6.9s-.67-4.67-2.01-6.74c-1.34-2.06-3.2-3.85-5.58-5.37-2.38-1.52-5.21-2.7-8.47-3.55-3.26-.85-6.79-1.27-10.57-1.27h-41.31v34.56Z"/>
    <path class="cls-2" d="m356.79,21.1l49.63,90.79h-15.08l-15.76-28.9h-58.05l-15.76,28.9h-14.98l50.02-90.79h19.97Zm-10.18,8.98l-25.06,45.62h50.02l-24.96-45.62Z"/>
    <path class="cls-2" d="m480.72,99.26l39.06-78.17h15.96l-45.52,90.79h-18.21l-46.3-90.79h15.96l39.06,78.17Z"/>
    <path class="cls-2" d="m578.9,21.1v90.79h-14.49V21.1h14.49Z"/>
    <path class="cls-2" d="m626.08,83.51c.33,3.25,1.43,6.24,3.33,8.95,1.89,2.71,4.41,5.07,7.54,7.06,3.13,2,6.83,3.55,11.11,4.65,4.27,1.11,8.96,1.66,14.05,1.66,4.57,0,8.94-.34,13.12-1.01,4.18-.67,7.86-1.74,11.06-3.19,3.2-1.45,5.74-3.34,7.64-5.66,1.89-2.32,2.84-5.13,2.84-8.43,0-2.69-1.03-4.98-3.08-6.87s-4.76-3.51-8.12-4.88c-3.36-1.37-7.18-2.55-11.45-3.55-4.28-1-8.6-1.93-12.97-2.8-3.66-.69-7.33-1.45-11.01-2.28-3.69-.82-7.24-1.76-10.67-2.8-3.43-1.04-6.62-2.23-9.59-3.58-2.97-1.34-5.55-2.93-7.73-4.75-2.19-1.82-3.92-3.89-5.19-6.22-1.27-2.32-1.91-5-1.91-8.04,0-3.77,1.11-7.1,3.33-9.99,2.22-2.88,5.33-5.3,9.35-7.26s8.81-3.44,14.39-4.46c5.58-1.02,11.7-1.53,18.35-1.53,5.94,0,11.19.39,15.76,1.17,4.57.78,8.55,1.84,11.94,3.19,3.39,1.34,6.26,2.92,8.61,4.72s4.27,3.7,5.78,5.69c1.5,2,2.61,4.06,3.33,6.18.72,2.13,1.17,4.17,1.37,6.12h-14.88c-.39-3.04-1.49-5.71-3.28-8.01-1.8-2.3-4.11-4.23-6.95-5.79-2.84-1.56-6.12-2.73-9.84-3.51-3.72-.78-7.67-1.17-11.84-1.17-3.85,0-7.62.26-11.31.78-3.69.52-6.98,1.36-9.89,2.5-2.9,1.15-5.25,2.66-7.05,4.52-1.8,1.87-2.69,4.14-2.69,6.83s1.01,5.13,3.04,7.06c2.02,1.93,4.73,3.59,8.12,4.98,3.39,1.39,7.26,2.58,11.6,3.58,4.34,1,8.83,1.97,13.46,2.93,3.65.74,7.33,1.52,11.01,2.34,3.69.83,7.23,1.76,10.62,2.8,3.39,1.04,6.54,2.22,9.45,3.55,2.9,1.32,5.43,2.86,7.59,4.62,2.15,1.76,3.83,3.77,5.04,6.05,1.21,2.28,1.81,4.89,1.81,7.84,0,4.43-1.22,8.32-3.67,11.68-2.45,3.36-5.86,6.17-10.23,8.43-4.37,2.26-9.56,3.96-15.56,5.11-6,1.15-12.56,1.72-19.68,1.72-6.4,0-12.63-.73-18.7-2.18-6.07-1.45-11.47-3.51-16.2-6.18-4.73-2.67-8.55-5.91-11.45-9.73-2.91-3.82-4.45-8.11-4.65-12.89h14.98Z"/>
  </g>
</svg>