<?xml version="1.0" encoding="UTF-8"?>
<svg id="Layer_1" data-name="Layer 1" xmlns="http://www.w3.org/2000/svg" viewBox="0 0 185.78 185.78">
  <defs>
    <style>
      .cls-1 {
        fill: currentColor;
        fill-rule: evenodd;
      }
    </style>
  </defs>
  <path class="cls-1" d="m70.21,108.76c.03-.09.06-.19.08-.3l8.89-31.95c2.98-8.94,5.42-19.47,7.99-28.7,1.63-5.44,3.87-9.71,6.76-12.81,2.76-2.98,6.13-4.9,10.11-5.78,2.25-.01,4.08.43,5.46,1.33,1.26.82,2.22,2.04,2.87,3.69l-7.74,35.01c-.12.52-.01,1.04.24,1.47l35,59.04-5.46,12.55-37.62-38.25c-.79-.8-2.06-.81-2.86-.02-.21.21-.37.46-.48.73l-19.91,52.94c-1.47,5.5-3.58,6.31-4.35,6.48-5.48,1.27-11.12-13.71-10.74-14.5l11.75-40.95Zm-34.8-5.55l-3.18,10.83,34.44-7.67,7.28-26.15-38.54,23Z"/>
</svg>